/* XPM */
static char * bitcoin64_xpm[] = {
"64 64 3 1",
" 	c None",
".	c #5CD06F",
"+	c #5DB69A",
"                                                                ",
"                                                                ",
"                                                                ",
"                                                                ",
"                                                                ",
"                                                                ",
"                                                                ",
"                                                                ",
"                                                                ",
"                                                                ",
"                                                                ",
"                                                                ",
"                                                                ",
"                                                                ",
"                                                                ",
"........................................................    ++++",
".........................................................   ++++",
".........................................................   ++++",
".........................................................   ++++",
".........................................................   ++++",
"                                                   ......   ++++",
"                                                   ......   ++++",
"+++++  +++++++++         ++++++++   .......        ......   ++++",
"+++++  +++++++++         ++++++++   .......        ......   ++++",
"+++++  +++++++++         ++++++++   ........       ......   ++++",
"+++++  ++++++++++       +++++++++   ........       ......   ++++",
"       ++++++++++       +++++++++   .........      ......   ++++",
"....   ++++++++++       +++++++++   ..........     ......   ++++",
".....  +++++++++++     ++++++++++   ..........     ......   ++++",
".....  +++++++++++     ++++++++++   ...........    ......   ++++",
".....  +++++ +++++     ++++ +++++   ..... ......   ......   ++++",
".....  ++++++ +++++   +++++ +++++   .....  .....   ......   ++++",
".....  ++++++ +++++   +++++ +++++   .....  ......  ......   ++++",
".....  ++++++ +++++   ++++  +++++   .....   ...... ......   ++++",
".....  ++++++  +++++ +++++  +++++   .....   ...... ......   ++++",
".....  ++++++  +++++ ++++   +++++   .....    ............   ++++",
".....  ++++++  ++++++++++   +++++   .....     ...........   ++++",
".....  ++++++   +++++++++   +++++   .....      ..........   ++++",
".....  ++++++   ++++++++    +++++   .....      ..........   ++++",
".....  ++++++   ++++++++    +++++   .....       .........   ++++",
".....  ++++++    +++++++    +++++   .....        ........   ++++",
".....  ++++++    ++++++     +++++   .....        ........   ++++",
".....  ++++++     +++++     +++++   .....         .......   ++++",
".....  ++++++     +++++     +++++   .....          ......   ++++",
".....  ++++++                                               ++++",
".....  ++++++                                               ++++",
".....  +++++++++++++++++++++++++++++++++++++++++++++++++++++++++",
".....  +++++++++++++++++++++++++++++++++++++++++++++++++++++++++",
".....  +++++++++++++++++++++++++++++++++++++++++++++++++++++++++",
".....  +++++++++++++++++++++++++++++++++++++++++++++++++++++++++",
"....    ++++++++++++++++++++++++++++++++++++++++++++++++++++++++",
"                                                                ",
"                                                                ",
"                                                                ",
"                                                                ",
"                                                                ",
"                                                                ",
"                                                                ",
"                                                                ",
"                                                                ",
"                                                                ",
"                                                                ",
"                                                                ",
"                                                                "};
