/* XPM */
static char * bitcoin32_xpm[] = {
"32 32 9 1",
" 	c None",
".	c #58585A",
"+	c #F7941E",
"@	c #FD961C",
"#	c #F39220",
"$	c #56575B",
"%	c #FE961C",
"&	c #FE971B",
"*	c #57585A",
"                                ",
"                                ",
"                                ",
"                                ",
"                                ",
"                                ",
"                                ",
"                                ",
"............................  ++",
"............................  ++",
"                          ..  ++",
"++  +++      +++   ..     ..  ++",
"++  ++++     +++@ ....    ..  ++",
"##  ++++    ++++@ ....    ..  ++",
"$$  +++++   ++++% .....   ..  ++",
"..  ++ ++   ++++% .....   ..  ++",
"..  ++ ++  ++ ++% ..  ..  ..  ++",
"..  ++ +++ ++ ++% ..  ......  ++",
"..  ++  ++ ++ ++% ..   .....  ++",
"..  ++  ++++  ++& ..    ....  ++",
"..  ++  ++++  ++& ..    ....  ++",
"..  ++   +++  ++& ..     ...  ++",
"..  ++    +    +   *      **  ++",
"..  ++                        ++",
"..  ++++++++++++++++++++++++++++",
"..  ++++++++++++++++++++++++++++",
"                                ",
"                                ",
"                                ",
"                                ",
"                                ",
"                                "};
