/* XPM */
static char * bitcoin64_xpm[] = {
"64 64 5 1",
" 	c None",
".	c #58585A",
"+	c #F7941E",
"@	c #FB951D",
"#	c #57585A",
"                                                                ",
"                                                                ",
"                                                                ",
"                                                                ",
"                                                                ",
"                                                                ",
"                                                                ",
"                                                                ",
"                                                                ",
"                                                                ",
"                                                                ",
"                                                                ",
"                                                                ",
"                                                                ",
"                                                                ",
"                                                                ",
"........................................................    ++++",
"........................................................    ++++",
"........................................................    ++++",
"........................................................    ++++",
"                                                   .....    ++++",
"                                                   .....    ++++",
"                                                   .....    ++++",
"++++    ++++++++         ++++++++   .......        .....    ++++",
"++++    ++++++++         ++++++++   .......        .....    ++++",
"++++    ++++++++         ++++++++   ........       .....    ++++",
"@@@@    +++++++++       +++++++++   ........       .....    ++++",
"        +++++++++       +++++++++   .........      .....    ++++",
"####    +++++++++       +++++++++   ..........     .....    ++++",
"....    ++++++++++     ++++ +++++   ..........     .....    ++++",
"....    ++++ +++++     ++++ +++++   ..... .....    .....    ++++",
"....    ++++  ++++     ++++ +++++   .....  .....   .....    ++++",
"....    ++++  +++++   ++++  +++++   .....  .....   .....    ++++",
"....    ++++  +++++   ++++  +++++   .....   .....  .....    ++++",
"....    ++++   ++++   ++++  +++++   .....    ..... .....    ++++",
"....    ++++   +++++ ++++   +++++   .....    .....  ....    ++++",
"....    ++++    ++++ ++++   +++++   .....     ..........    ++++",
"....    ++++    +++++++++   +++++   .....      .........    ++++",
"....    ++++    ++++++++    +++++   .....      .........    ++++",
"....    ++++     +++++++    +++++   .....       ........    ++++",
"....    ++++     +++++++    +++++   .....        .......    ++++",
"....    ++++     ++++++     +++++   .....        .......    ++++",
"....    ++++      +++++     +++++   .....         ......    ++++",
"....    ++++      +++++     +++++   .....          .....    ++++",
"....    ++++                                                ++++",
"....    ++++                                                ++++",
"....    ++++                                                ++++",
"....    ++++++++++++++++++++++++++++++++++++++++++++++++++++++++",
"....    ++++++++++++++++++++++++++++++++++++++++++++++++++++++++",
"....    ++++++++++++++++++++++++++++++++++++++++++++++++++++++++",
"....    ++++++++++++++++++++++++++++++++++++++++++++++++++++++++",
"                                                                ",
"                                                                ",
"                                                                ",
"                                                                ",
"                                                                ",
"                                                                ",
"                                                                ",
"                                                                ",
"                                                                ",
"                                                                ",
"                                                                ",
"                                                                ",
"                                                                "};
