/* XPM */
static char * bitcoin32_xpm[] = {
"32 32 4 1",
" 	c None",
".	c #5CD06F",
"+	c #5DB69A",
"@	c #5CC67F",
"                                ",
"                                ",
"                                ",
"                                ",
"                                ",
"                                ",
"                                ",
"                                ",
"............................  ++",
"............................  ++",
"                          ..  ++",
"++  ++++     ++++ ....    ..  ++",
"++  ++++    +++++ ....    ..  ++",
"@@  +++++   +++++ .....   ..  ++",
"..  +++++   +++++ .....   ..  ++",
"..  ++ ++  ++ +++ ......  ..  ++",
"..  ++ +++ ++ +++ ... ... ..  ++",
"..  ++ +++ ++ +++ ... ......  ++",
"..  ++  ++++  +++ ...  .....  ++",
"..  ++  ++++  +++ ...   ....  ++",
"..  ++   +++  +++ ...   ....  ++",
"..  ++   ++   +++ ...    ...  ++",
"..  ++                        ++",
"..  ++++++++++++++++++++++++++++",
"..  ++++++++++++++++++++++++++++",
"                                ",
"                                ",
"                                ",
"                                ",
"                                ",
"                                ",
"                                "};
