/* XPM */
static char * bitcoin16_xpm[] = {
"16 16 15 1",
" 	c None",
".	c #58585A",
"+	c #54565C",
"@	c #FD961C",
"#	c #53565C",
"$	c #F6931F",
"%	c #F7941E",
"&	c #F9951D",
"*	c #D4872B",
"=	c #52565C",
"-	c #56575B",
";	c #51565C",
">	c #D2862C",
",	c #51555D",
"'	c #F8941E",
"                ",
"                ",
"                ",
"                ",
".............+ @",
"             # @",
"$ %%  %&*=.  # @",
"- %%  %&*;.. # @",
". % % %&>,...# @",
". % %% &>,  .# @",
". % %% &>,  .+ @",
". %            &",
". '%%%%%%'%%%'%%",
"                ",
"                ",
"                "};
