/* XPM */
static char * bitcoin128_xpm[] = {
"128 128 3 1",
" 	c None",
".	c #5CD06F",
"+	c #5DB69A",
"                                                                                                                                ",
"                                                                                                                                ",
"                                                                                                                                ",
"                                                                                                                                ",
"                                                                                                                                ",
"                                                                                                                                ",
"                                                                                                                                ",
"                                                                                                                                ",
"                                                                                                                                ",
"                                                                                                                                ",
"                                                                                                                                ",
"                                                                                                                                ",
"                                                                                                                                ",
"                                                                                                                                ",
"                                                                                                                                ",
"                                                                                                                                ",
"                                                                                                                                ",
"                                                                                                                                ",
"                                                                                                                                ",
"                                                                                                                                ",
"                                                                                                                                ",
"                                                                                                                                ",
"                                                                                                                                ",
"                                                                                                                                ",
"                                                                                                                                ",
"                                                                                                                                ",
"                                                                                                                                ",
"                                                                                                                                ",
"                                                                                                                                ",
"                                                                                                                                ",
"                                                                                                                                ",
"................................................................................................................        +++++++ ",
"................................................................................................................        ++++++++",
".................................................................................................................       ++++++++",
".................................................................................................................       ++++++++",
".................................................................................................................       ++++++++",
".................................................................................................................       ++++++++",
".................................................................................................................       ++++++++",
".................................................................................................................       ++++++++",
"                                                                                                      ...........       ++++++++",
"                                                                                                       ..........       ++++++++",
"                                                                                                       ..........       ++++++++",
"                                                                                                       ..........       ++++++++",
"                                                                                                       ..........       ++++++++",
"                                                                                                       ..........       ++++++++",
"+++++++++       +++++++++++++++                     ++++++++++++++      .............                  ..........       ++++++++",
"+++++++++       +++++++++++++++                    +++++++++++++++      ..............                 ..........       ++++++++",
"+++++++++       ++++++++++++++++                   +++++++++++++++      ..............                 ..........       ++++++++",
"+++++++++       ++++++++++++++++                  ++++++++++++++++      ...............                ..........       ++++++++",
"+++++++++       ++++++++++++++++                  ++++++++++++++++      ...............                ..........       ++++++++",
"+++++++++       ++++++++++++++++                  ++++++++++++++++      ................               .........        ++++++++",
"+++++++++       +++++++++++++++++                +++++++++++++++++      ................               .........        ++++++++",
"++++++++        +++++++++++++++++                +++++++++++++++++      .................              .........        ++++++++",
"                +++++++++++++++++                +++++++++++++++++      ..................             .........        ++++++++",
"                ++++++++++++++++++              ++++++++++++++++++      ..................             .........        ++++++++",
"                ++++++++++++++++++              ++++++++ +++++++++      ...................            .........        ++++++++",
".........       ++++++++ +++++++++              ++++++++ +++++++++      ...................            .........        ++++++++",
".........       ++++++++  +++++++++            ++++++++  +++++++++      ....................           .........        ++++++++",
".........       ++++++++  +++++++++            ++++++++  +++++++++      .....................          .........        ++++++++",
".........       ++++++++  +++++++++            ++++++++  +++++++++      .......... ..........          .........        ++++++++",
".........       ++++++++   +++++++++          ++++++++   +++++++++      ..........  ..........         .........        ++++++++",
".........       ++++++++   +++++++++          ++++++++   +++++++++      ..........  ...........        .........        ++++++++",
".........       ++++++++   ++++++++++         ++++++++   +++++++++      ..........   ..........        .........        ++++++++",
".........       +++++++++   +++++++++        ++++++++    +++++++++      ..........    ..........       .........        ++++++++",
".........       +++++++++   +++++++++        ++++++++    +++++++++      ..........    ...........      .........        ++++++++",
".........       +++++++++   ++++++++++       ++++++++    +++++++++      ..........     ..........      .........        ++++++++",
".........       +++++++++    +++++++++      ++++++++     +++++++++      ..........      ..........     .........        ++++++++",
".........       +++++++++    +++++++++      ++++++++     +++++++++      ..........      ...........    .........        ++++++++",
".........       +++++++++    ++++++++++     ++++++++     +++++++++      ..........       ..........    .........        ++++++++",
".........       +++++++++     +++++++++    ++++++++      +++++++++      ..........        ..........   .........        ++++++++",
".........       +++++++++     +++++++++    ++++++++      +++++++++      ..........        ...........  .........        ++++++++",
".........       +++++++++     ++++++++++   ++++++++      +++++++++      ..........         ..........  .........        ++++++++",
".........       +++++++++      +++++++++  ++++++++       +++++++++      ..........          ....................        ++++++++",
".........       +++++++++      +++++++++  ++++++++       +++++++++      ..........          ....................        ++++++++",
".........       +++++++++      ++++++++++ ++++++++       +++++++++      ..........           ...................        ++++++++",
".........       +++++++++       +++++++++++++++++        +++++++++      ..........            ..................        ++++++++",
".........       +++++++++       +++++++++++++++++        +++++++++      ..........            ..................        ++++++++",
".........       +++++++++        ++++++++++++++++        +++++++++      ..........             .................        ++++++++",
".........       +++++++++        +++++++++++++++         +++++++++      ..........              .................       ++++++++",
".........       +++++++++        +++++++++++++++         +++++++++      ..........              .................       ++++++++",
".........       +++++++++         ++++++++++++++         +++++++++      ..........               ................       ++++++++",
".........       +++++++++         +++++++++++++          +++++++++      ..........                ...............       ++++++++",
".........       +++++++++         +++++++++++++          +++++++++      ..........                ...............       ++++++++",
".........       +++++++++          ++++++++++++          +++++++++      ..........                 ..............       ++++++++",
".........       +++++++++          +++++++++++           +++++++++      ..........                  .............       ++++++++",
".........       +++++++++          +++++++++++           +++++++++      ..........                  .............       ++++++++",
".........       +++++++++           +++++++++            +++++++++      ..........                   ............       ++++++++",
".........       +++++++++           +++++++++            +++++++++      ..........                    ...........       ++++++++",
".........       +++++++++                                                                              .........        ++++++++",
".........       +++++++++                                                                                               ++++++++",
".........       +++++++++                                                                                               ++++++++",
".........       +++++++++                                                                                               ++++++++",
".........       +++++++++                                                                                               ++++++++",
".........       +++++++++                                                                                               ++++++++",
".........       ++++++++++++++++++++++++++++++++++++++++++++++++++++++++++++++++++++++++++++++++++++++++++++++++++++++++++++++++",
".........       ++++++++++++++++++++++++++++++++++++++++++++++++++++++++++++++++++++++++++++++++++++++++++++++++++++++++++++++++",
".........       ++++++++++++++++++++++++++++++++++++++++++++++++++++++++++++++++++++++++++++++++++++++++++++++++++++++++++++++++",
".........       ++++++++++++++++++++++++++++++++++++++++++++++++++++++++++++++++++++++++++++++++++++++++++++++++++++++++++++++++",
".........       ++++++++++++++++++++++++++++++++++++++++++++++++++++++++++++++++++++++++++++++++++++++++++++++++++++++++++++++++",
".........       ++++++++++++++++++++++++++++++++++++++++++++++++++++++++++++++++++++++++++++++++++++++++++++++++++++++++++++++++",
".........       ++++++++++++++++++++++++++++++++++++++++++++++++++++++++++++++++++++++++++++++++++++++++++++++++++++++++++++++++",
".........       +++++++++++++++++++++++++++++++++++++++++++++++++++++++++++++++++++++++++++++++++++++++++++++++++++++++++++++++ ",
"                                                                                                                                ",
"                                                                                                                                ",
"                                                                                                                                ",
"                                                                                                                                ",
"                                                                                                                                ",
"                                                                                                                                ",
"                                                                                                                                ",
"                                                                                                                                ",
"                                                                                                                                ",
"                                                                                                                                ",
"                                                                                                                                ",
"                                                                                                                                ",
"                                                                                                                                ",
"                                                                                                                                ",
"                                                                                                                                ",
"                                                                                                                                ",
"                                                                                                                                ",
"                                                                                                                                ",
"                                                                                                                                ",
"                                                                                                                                ",
"                                                                                                                                ",
"                                                                                                                                ",
"                                                                                                                                ",
"                                                                                                                                ",
"                                                                                                                                ",
"                                                                                                                                "};
