/* XPM */
static char * bitcoin16_xpm[] = {
"16 16 7 1",
" 	c None",
".	c #5CD06F",
"+	c #5DB69A",
"@	c #5DB49E",
"#	c #5DB39E",
"$	c #5DBB92",
"%	c #5CD06E",
"                ",
"                ",
"                ",
"                ",
".............. +",
"@ @@   # .   . +",
"$ ++  ++ ..  . +",
"% +++ ++ ... . +",
". + ++ + . ... +",
". + ++ + .  .. +",
". + ++ + .  .. +",
". +            +",
". ++++++++++++++",
"                ",
"                ",
"                "};
